<?xml version="1.0" encoding="UTF-8" standalone="no"?>
<!-- Created with Inkscape (http://www.inkscape.org/) -->

<svg
   xmlns:dc="http://purl.org/dc/elements/1.1/"
   xmlns:cc="http://creativecommons.org/ns#"
   xmlns:rdf="http://www.w3.org/1999/02/22-rdf-syntax-ns#"
   xmlns:svg="http://www.w3.org/2000/svg"
   xmlns="http://www.w3.org/2000/svg"
   xmlns:sodipodi="http://sodipodi.sourceforge.net/DTD/sodipodi-0.dtd"
   xmlns:inkscape="http://www.inkscape.org/namespaces/inkscape"
   width="248.42896"
   height="245.24988"
   id="svg2"
   version="1.1"
   inkscape:version="0.48.3.1 r9886"
   sodipodi:docname="headphones.svg">
  <defs
     id="defs4">
    <linearGradient
       id="linearGradient3782">
      <stop
         style="stop-color:#000000;stop-opacity:1;"
         offset="0"
         id="stop3784" />
      <stop
         style="stop-color:#000000;stop-opacity:0;"
         offset="1"
         id="stop3786" />
    </linearGradient>
  </defs>
  <sodipodi:namedview
     id="base"
     pagecolor="#ffffff"
     bordercolor="#666666"
     borderopacity="1.0"
     inkscape:pageopacity="0.0"
     inkscape:pageshadow="2"
     inkscape:zoom="0.7"
     inkscape:cx="-115.40067"
     inkscape:cy="139.49518"
     inkscape:document-units="px"
     inkscape:current-layer="layer1"
     showgrid="true"
     inkscape:snap-global="false"
     showguides="false"
     inkscape:window-width="1301"
     inkscape:window-height="744"
     inkscape:window-x="65"
     inkscape:window-y="24"
     inkscape:window-maximized="1"
     fit-margin-top="0"
     fit-margin-left="0"
     fit-margin-right="0"
     fit-margin-bottom="0">
    <inkscape:grid
       type="xygrid"
       id="grid2987"
       empspacing="5"
       visible="true"
       enabled="true"
       snapvisiblegridlinesonly="true"
       originx="-193.51523px"
       originy="-482.38665px" />
  </sodipodi:namedview>
  <metadata
     id="metadata7">
    <rdf:RDF>
      <cc:Work
         rdf:about="">
        <dc:format>image/svg+xml</dc:format>
        <dc:type
           rdf:resource="http://purl.org/dc/dcmitype/StillImage" />
        <dc:title />
      </cc:Work>
    </rdf:RDF>
  </metadata>
  <g
     inkscape:label="Layer 1"
     inkscape:groupmode="layer"
     id="layer1"
     transform="translate(-193.51523,-324.72566)">
    <g
       id="g3010"
       style="fill:none;stroke:#000000;stroke-width:6;stroke-miterlimit:4;stroke-opacity:1;stroke-dasharray:none">
      <path
         style="fill:none;stroke:#000000;stroke-width:6;stroke-linecap:butt;stroke-linejoin:miter;stroke-miterlimit:4;stroke-opacity:1;stroke-dasharray:none"
         d="m 378.94419,361.8571 c 5,0 5,-10 5,-10 0,0 20,5 25,10 5,5 20,90 20,100 0,10 -20,50 -20,50 l -15,-5 c 0,0 7.07883,-26.97403 5,-30 -2.07883,-3.02597 -23.24192,-6.70426 -25,-5 -1.75808,1.70426 -4.28571,20 -4.28571,20 0,0 -4.95483,-3.99107 -8.57143,-1.78571 -3.61661,2.20536 -13.66774,52.21504 -12.14286,53.92857 2.03472,2.28645 8.92857,2.14286 8.92857,2.14286 0,0 -4.74492,8.44993 -3.92857,10.71428 0.81635,2.26436 22.2191,11.24856 25,10 2.7809,-1.24856 10,-30 10,-30 0,0 10,5 15,5 5,0 35,-70 35,-80 0,-10 -15,-105 -20,-110 -5,-5 -66.53067,-24.13144 -101.21448,-24.13144 -34.68381,0 -96.21448,19.13144 -101.21448,24.13144 -5,5 -20,100 -20,110 0,10 30,80 35,80 5,0 15,-5 15,-5 0,0 7.2191,28.75144 10,30 2.7809,1.24856 24.18365,-7.73564 25,-10 0.81635,-2.26435 -3.92857,-10.71428 -3.92857,-10.71428 0,0 6.89385,0.14359 8.92857,-2.14286 1.52488,-1.71353 -8.52625,-51.72321 -12.14286,-53.92857 -3.6166,-2.20536 -8.57143,1.78571 -8.57143,1.78571 0,0 -2.52763,-18.29574 -4.28571,-20 -1.75808,-1.70426 -22.92117,1.97403 -25,5 -2.07883,3.02597 5,30 5,30 l -15,5 c 0,0 -20,-40 -20,-50 0,-10 15,-95 20,-100 5,-5 25,-10 25,-10 0,0 0,10 5,10 5,0 40.25705,-14.34264 61.21448,-14.34264 20.95743,0 56.21448,14.34264 61.21448,14.34264 z"
         id="path3008"
         inkscape:connector-curvature="0"
         sodipodi:nodetypes="zczzcczzczsczzczszzzszczzcszczzcczzczzz" />
    </g>
  </g>
</svg>
